<?xml version="1.0" encoding="UTF-8"?>
<svg version="1.1" xmlns="http://www.w3.org/2000/svg" width="1024" height="1024">
<path d="M0 0 C1.43920029 0.20132852 2.87849543 0.4019799 4.31787109 0.60205078 C36.97921687 5.19463857 68.71471907 12.52281357 100 23 C101.04349609 23.34611328 102.08699219 23.69222656 103.16210938 24.04882812 C152.13692665 40.45679297 198.68883055 65.06331275 240 96 C240.73089844 96.54543457 241.46179688 97.09086914 242.21484375 97.65283203 C254.45729809 106.81584652 266.18719403 116.42745883 277.48828125 126.734375 C278.84254709 127.95595228 280.20281147 129.17164314 281.5949707 130.34985352 C287.97099118 135.7802813 293.84714336 141.69588921 299.75463867 147.62426758 C301.55862085 149.43360933 303.36788665 151.23754319 305.17773438 153.04101562 C310.99759646 158.8572224 316.70449464 164.6949497 322 171 C322.87655981 172.01002188 323.75411275 173.01918302 324.6328125 174.02734375 C331.49423936 182.03951147 337.96789762 190.30198758 344.29980469 198.73779297 C345.43452676 200.24760554 346.5732152 201.75444516 347.71582031 203.25830078 C380.77856884 246.78500783 405.73962867 296.22643978 423 348 C423.35400879 349.05541992 423.70801758 350.11083984 424.07275391 351.19824219 C433.9801251 381.07377822 440.3773754 411.75679901 444.70574951 442.89654541 C444.97709792 444.83628411 445.25975828 446.77443144 445.54345703 448.71240234 C451.15755797 488.52401588 450.81852575 533.25314352 445 573 C444.79867148 574.43920029 444.5980201 575.87849543 444.39794922 577.31787109 C439.80536143 609.97921687 432.47718643 641.71471907 422 673 C421.65388672 674.04349609 421.30777344 675.08699219 420.95117188 676.16210938 C404.54320703 725.13692665 379.93668725 771.68883055 349 813 C348.45456543 813.73089844 347.90913086 814.46179688 347.34716797 815.21484375 C338.18415348 827.45729809 328.57254117 839.18719403 318.265625 850.48828125 C317.04404772 851.84254709 315.82835686 853.20281147 314.65014648 854.5949707 C309.2197187 860.97099118 303.30411079 866.84714336 297.37573242 872.75463867 C295.56639067 874.55862085 293.76245681 876.36788665 291.95898438 878.17773438 C286.1427776 883.99759646 280.3050503 889.70449464 274 895 C272.98997812 895.87655981 271.98081698 896.75411275 270.97265625 897.6328125 C262.96048853 904.49423936 254.69801242 910.96789762 246.26220703 917.29980469 C244.75239446 918.43452676 243.24555484 919.5732152 241.74169922 920.71582031 C198.21499217 953.77856884 148.77356022 978.73962867 97 996 C95.94458008 996.35400879 94.88916016 996.70801758 93.80175781 997.07275391 C63.92622178 1006.9801251 33.24320099 1013.3773754 2.10345459 1017.70574951 C0.16371589 1017.97709792 -1.77443144 1018.25975828 -3.71240234 1018.54345703 C-43.52401588 1024.15755797 -88.25314352 1023.81852575 -128 1018 C-129.43920029 1017.79867148 -130.87849543 1017.5980201 -132.31787109 1017.39794922 C-164.97921687 1012.80536143 -196.71471907 1005.47718643 -228 995 C-229.04349609 994.65388672 -230.08699219 994.30777344 -231.16210938 993.95117188 C-280.13692665 977.54320703 -326.68883055 952.93668725 -368 922 C-369.09634766 921.18184814 -369.09634766 921.18184814 -370.21484375 920.34716797 C-382.45729809 911.18415348 -394.18719403 901.57254117 -405.48828125 891.265625 C-406.84254709 890.04404772 -408.20281147 888.82835686 -409.5949707 887.65014648 C-415.97099118 882.2197187 -421.84714336 876.30411079 -427.75463867 870.37573242 C-429.55862085 868.56639067 -431.36788665 866.76245681 -433.17773438 864.95898438 C-438.99759646 859.1427776 -444.70449464 853.3050503 -450 847 C-450.87655981 845.98997812 -451.75411275 844.98081698 -452.6328125 843.97265625 C-459.49423936 835.96048853 -465.96789762 827.69801242 -472.29980469 819.26220703 C-473.43452676 817.75239446 -474.5732152 816.24555484 -475.71582031 814.74169922 C-508.77856884 771.21499217 -533.73962867 721.77356022 -551 670 C-551.35400879 668.94458008 -551.70801758 667.88916016 -552.07275391 666.80175781 C-561.9801251 636.92622178 -568.3773754 606.24320099 -572.70574951 575.10345459 C-572.97709792 573.16371589 -573.25975828 571.22556856 -573.54345703 569.28759766 C-579.15755797 529.47598412 -578.81852575 484.74685648 -573 445 C-572.79867148 443.56079971 -572.5980201 442.12150457 -572.39794922 440.68212891 C-567.80536143 408.02078313 -560.47718643 376.28528093 -550 345 C-549.65388672 343.95650391 -549.30777344 342.91300781 -548.95117188 341.83789062 C-532.54320703 292.86307335 -507.93668725 246.31116945 -477 205 C-476.45456543 204.26910156 -475.90913086 203.53820312 -475.34716797 202.78515625 C-466.18415348 190.54270191 -456.57254117 178.81280597 -446.265625 167.51171875 C-445.04404772 166.15745291 -443.82835686 164.79718853 -442.65014648 163.4050293 C-437.2197187 157.02900882 -431.30411079 151.15285664 -425.37573242 145.24536133 C-423.56639067 143.44137915 -421.76245681 141.63211335 -419.95898438 139.82226562 C-414.1427776 134.00240354 -408.3050503 128.29550536 -402 123 C-400.98997812 122.12344019 -399.98081698 121.24588725 -398.97265625 120.3671875 C-390.96048853 113.50576064 -382.69801242 107.03210238 -374.26220703 100.70019531 C-372.75239446 99.56547324 -371.24555484 98.4267848 -369.74169922 97.28417969 C-326.21499217 64.22143116 -276.77356022 39.26037133 -225 22 C-223.94458008 21.64599121 -222.88916016 21.29198242 -221.80175781 20.92724609 C-191.92622178 11.0198749 -161.24320099 4.6226246 -130.10345459 0.29425049 C-128.16371589 0.02290208 -126.22556856 -0.25975828 -124.28759766 -0.54345703 C-84.47598412 -6.15755797 -39.74685648 -5.81852575 0 0 Z " fill="#FDFDFD" transform="translate(576,3)"/>
<path d="M0 0 C0.97775391 -0.01611328 1.95550781 -0.03222656 2.96289062 -0.04882812 C19.32338268 -0.0596414 35.08051993 6.81514808 46.8515625 18.10351562 C57.45363837 28.80866723 64.48675789 42.20732401 65.1875 57.375 C64.79545986 74.84528879 57.0293576 90.33452576 44.640625 102.43359375 C34.12777576 111.48240526 18.91238431 119.63570652 4.8125 119.3125 C4.13823143 136.34883339 4.13823143 136.34883339 3.62890625 153.390625 C3.15988414 172.22385874 2.40671517 191.04337882 1.57122803 209.86346436 C1.44029367 212.81519351 1.31287213 215.76704082 1.1885376 218.71905518 C1.03947178 222.24989932 0.88237333 225.78030283 0.71948433 229.31053543 C0.63161044 231.25273181 0.55115326 233.19525935 0.47093201 235.13778687 C-0.41180607 253.6915101 -0.41180607 253.6915101 -4.07884216 257.0390625 C-7.13614951 258.885398 -8.68649131 259.09844073 -12.1875 258.3125 C-16.95570796 252.8474944 -19.18840722 245.54988483 -21.6875 238.875 C-31.5948838 213.37101239 -44.68429359 190.47323634 -63.1875 170.3125 C-63.68443359 169.7649707 -64.18136719 169.21744141 -64.69335938 168.65332031 C-82.47759023 149.27011916 -104.95550147 136.47442098 -130.1875 129.3125 C-131.40953125 128.95671875 -132.6315625 128.6009375 -133.890625 128.234375 C-170.14993784 118.39885289 -213.55049634 118.73619346 -247.1875 137.3125 C-262.40082104 146.52331253 -273.9039024 158.43987681 -280.1875 175.3125 C-280.4865625 176.06015625 -280.785625 176.8078125 -281.09375 177.578125 C-286.8838483 194.62674777 -283.6489221 214.80685084 -275.9375 230.6875 C-272.65323503 236.84374986 -268.86697627 242.14924329 -264.1875 247.3125 C-263.52234375 248.05886719 -262.8571875 248.80523437 -262.171875 249.57421875 C-248.54637908 264.03238386 -229.91256883 273.82749407 -212.19384766 282.34619141 C-210.26311349 283.2760826 -208.34037994 284.22101991 -206.41796875 285.16796875 C-192.63457217 291.87665533 -178.38195744 297.54318147 -164.1875 303.3125 C-162.9195459 303.82804443 -162.9195459 303.82804443 -161.62597656 304.35400391 C-156.55930117 306.40858276 -151.48313306 308.43526799 -146.37573242 310.38696289 C-138.3730685 313.44579373 -130.42709342 316.62574795 -122.5 319.875 C-120.20455135 320.81410589 -117.9089804 321.75291289 -115.61328125 322.69140625 C-114.51161621 323.14217529 -113.40995117 323.59294434 -112.27490234 324.05737305 C-109.62522079 325.13455262 -106.96917041 326.19233684 -104.30859375 327.2421875 C-49.23901393 349.22437397 10.11059572 377.99994685 35.11230469 435.39135742 C41.09827703 449.86672347 43.86721505 464.72962084 44.8125 480.3125 C44.8846875 481.4778125 44.956875 482.643125 45.03125 483.84375 C46.09202462 520.97086169 31.70516073 554.05035922 7.25 581.15234375 C-11.57544839 600.75186485 -35.31155985 613.75583284 -60.35253906 623.58691406 C-61.88567455 624.19315125 -63.40901812 624.82407597 -64.9296875 625.4609375 C-74.61259596 629.32791372 -85.01567403 631.17675201 -95.1875 633.3125 C-95.94321289 633.47137695 -96.69892578 633.63025391 -97.47753906 633.79394531 C-149.43415006 644.53439266 -201.72618724 637.6039076 -252.67944336 625.00244141 C-285.99790654 616.6670148 -285.99790654 616.6670148 -320.125 613.875 C-320.79463776 613.87450653 -321.46427551 613.87401306 -322.15420532 613.87350464 C-332.79408822 613.91179356 -343.64096009 614.30880335 -353.5 618.6875 C-354.49 619.12191406 -355.48 619.55632813 -356.5 620.00390625 C-358.76675445 621.10763117 -360.86775998 622.28759052 -363 623.625 C-366.74275732 625.60645976 -369.01022436 625.87482557 -373.1875 625.3125 C-374.87011719 624.10571289 -374.87011719 624.10571289 -376.1875 622.3125 C-376.54394531 619.96264648 -376.54394531 619.96264648 -376.515625 617.18359375 C-376.51119385 616.15886963 -376.5067627 615.13414551 -376.50219727 614.07836914 C-376.48084717 612.98000732 -376.45949707 611.88164551 -376.4375 610.75 C-376.42581787 609.61103271 -376.41413574 608.47206543 -376.40209961 607.29858398 C-376.31006584 600.46447437 -376.06868183 593.65752008 -375.61425781 586.83789062 C-374.9973533 577.23119825 -374.82150961 567.60279674 -374.58032227 557.98071289 C-374.40082456 551.11365138 -374.1391986 544.27323617 -373.6809082 537.41748047 C-373.16499852 529.12931584 -373.03836541 520.86480614 -373.01883507 512.56245995 C-373.00895655 509.23854535 -372.98309007 505.91480313 -372.95851612 502.59097004 C-372.91332674 496.44437064 -372.87503201 490.29788088 -372.86157227 484.15112305 C-372.85150698 479.83247846 -372.82226315 475.51433375 -372.78025246 471.19588661 C-372.76796121 469.56086306 -372.76281778 467.92576914 -372.76505089 466.29070091 C-372.76739788 464.01771253 -372.74530154 461.74618026 -372.7175293 459.47338867 C-372.71166306 458.18341476 -372.70579681 456.89344086 -372.69975281 455.56437683 C-372.1875 452.3125 -372.1875 452.3125 -370.37312317 449.86885071 C-368.1875 448.3125 -368.1875 448.3125 -364.6875 448.25 C-360.38285962 449.55676583 -359.65410633 450.59346953 -357.1875 454.3125 C-355.76428601 457.48100428 -354.60361936 460.72959619 -353.4375 464 C-344.61361802 487.83045595 -333.61841638 510.0263126 -318.1875 530.3125 C-317.67461426 530.98764648 -317.16172852 531.66279297 -316.63330078 532.35839844 C-285.30653302 573.14469812 -239.41099218 601.4465936 -188.13330078 608.47509766 C-185.8195619 608.76975682 -183.50461886 609.0458959 -181.1875 609.3125 C-179.57294922 609.50972656 -179.57294922 609.50972656 -177.92578125 609.7109375 C-174.67512427 610.0320972 -171.45238057 610.19334377 -168.1875 610.3125 C-166.92703857 610.36929932 -166.92703857 610.36929932 -165.64111328 610.42724609 C-133.19713059 611.74186806 -97.48967767 605.2597942 -72.6875 582.8125 C-58.25798878 569.11201412 -51.31405738 553.0431301 -50.78515625 533.24389648 C-50.52498758 508.77539429 -58.71005877 490.50799892 -75.25 472.75 C-104.29447274 445.02113056 -147.01892021 431.90046202 -183.50804138 417.03788757 C-205.22275724 408.18959836 -226.97203189 399.30894091 -248.1875 389.3125 C-249.72495163 388.61260256 -251.26274004 387.91344464 -252.80078125 387.21484375 C-299.33842429 365.84533589 -346.62470011 334.47023536 -365.44433594 284.56933594 C-367.81626089 277.36628922 -369.03303748 269.79230121 -370.1875 262.3125 C-370.37957031 261.06984375 -370.57164062 259.8271875 -370.76953125 258.546875 C-372.82149409 241.05302233 -371.76231929 223.28748738 -367.1875 206.3125 C-366.92195313 205.24902344 -366.65640625 204.18554688 -366.3828125 203.08984375 C-362.52338172 189.72886196 -354.73854734 176.20940988 -346.1875 165.3125 C-345.15882813 163.9821875 -345.15882813 163.9821875 -344.109375 162.625 C-331.67884665 146.9781811 -316.99126913 135.75918057 -300.1875 125.3125 C-299.40632813 124.79171875 -298.62515625 124.2709375 -297.8203125 123.734375 C-288.95794093 117.99433362 -278.93242278 114.27331456 -269.1875 110.3125 C-268.0015625 109.82523437 -266.815625 109.33796875 -265.59375 108.8359375 C-248.07646948 102.11519869 -229.29364133 98.72640389 -210.71850586 96.60620117 C-208.60233409 96.36063788 -206.49048232 96.07821471 -204.38012695 95.78686523 C-200.37371827 95.28576861 -196.43084901 95.18317647 -192.390625 95.1796875 C-191.67573914 95.17873077 -190.96085327 95.17777405 -190.2243042 95.17678833 C-188.72180086 95.1761128 -187.21929448 95.17792295 -185.71679688 95.18212891 C-183.45696194 95.18745414 -181.19732862 95.18217885 -178.9375 95.17578125 C-171.47598995 95.1726059 -164.12470506 95.37416514 -156.68994141 96.08544922 C-153.53852026 96.37138304 -150.41350677 96.44547858 -147.25 96.4375 C-146.20972656 96.44007813 -145.16945313 96.44265625 -144.09765625 96.4453125 C-141.29092639 96.40393885 -141.29092639 96.40393885 -139.02197266 95.81689453 C-135.32191112 95.15846842 -131.67165899 95.13083172 -127.92578125 95.109375 C-126.71017014 95.09919342 -126.71017014 95.09919342 -125.47000122 95.08880615 C-122.81329532 95.07171961 -120.15675753 95.06558515 -117.5 95.0625 C-116.58590363 95.06016357 -115.67180725 95.05782715 -114.73001099 95.05541992 C-102.27771891 95.04348529 -90.01013977 95.53982138 -77.625 96.8125 C-43.56472863 100.27610367 -4.57032186 102.00055911 24.625 81.0625 C33.47716884 73.80082974 37.94235395 64.13074279 40.8125 53.3125 C42.1325 53.6425 43.4525 53.9725 44.8125 54.3125 C44.76286855 65.52920818 39.93959233 75.09476243 32.2578125 83.15625 C19.36711989 94.52312272 3.66609802 100.74966687 -13.1875 103.3125 C-14.45722656 103.51746094 -15.72695313 103.72242188 -17.03515625 103.93359375 C-36.75992325 106.8538019 -56.26748856 105.38337424 -75.94552612 103.02716064 C-90.43489053 101.30316296 -104.58647388 100.82246943 -119.1875 101.3125 C-118.41897705 101.46807373 -117.6504541 101.62364746 -116.85864258 101.78393555 C-113.23834933 102.51899993 -109.61885968 103.25791552 -106 104 C-105.34157104 104.13499908 -104.68314209 104.26999817 -104.00476074 104.40908813 C-95.61387465 106.13452824 -87.25789794 107.95757629 -78.9375 110 C-61.05151157 114.36222635 -43.655006 116.74825014 -25.1875 116.3125 C-24.32898438 116.29574219 -23.47046875 116.27898437 -22.5859375 116.26171875 C-18.09820687 115.98420891 -15.02577562 114.83254123 -11.0625 112.6875 C-7.90457067 110.98064412 -5.79507706 109.91843942 -2.1875 110.375 C0.8125 111.3125 0.8125 111.3125 2.8125 113.3125 C15.52546467 112.33814869 26.50399717 106.36415567 36.8125 99.3125 C37.73482422 98.69955078 37.73482422 98.69955078 38.67578125 98.07421875 C47.27660664 91.69894386 54.16086888 79.91000314 56.41796875 69.52734375 C57.87291096 57.67172556 57.84529314 46.94170696 51.8125 36.3125 C51.36648438 35.51585937 50.92046875 34.71921875 50.4609375 33.8984375 C42.598808 21.11698675 29.62077809 11.41436817 14.9375 7.75 C12.57101335 7.41579426 12.57101335 7.41579426 9.8125 7.3125 C9.12397949 7.27302246 8.43545898 7.23354492 7.72607422 7.19287109 C-4.96853248 6.55327138 -16.09923667 7.14429015 -26.3984375 15.47265625 C-32.08918774 21.32493434 -34.66007614 27.65358927 -35.5625 35.625 C-35.07510453 40.41772212 -33.21075209 43.60795166 -30.1875 47.3125 C-26.99987635 49.43758244 -24.92237777 49.8145163 -21.1875 50.3125 C-20.81625 49.1678125 -20.81625 49.1678125 -20.4375 48 C-19.03788832 44.99083489 -18.08540845 43.8856503 -15.1875 42.3125 C-12.33999225 41.61986298 -10.84880684 41.93638174 -8.3125 43.37890625 C-5.64656942 45.35147988 -3.6162764 47.04914097 -2.53125 50.24609375 C-2.20623688 54.41438696 -3.28644976 56.94507119 -5.875 60.1875 C-9.05397503 63.71969448 -12.33124536 65.06926663 -17.01953125 65.68359375 C-25.37989873 65.86986668 -29.75699688 64.28885132 -35.90234375 58.7734375 C-41.60819577 52.88622589 -43.29291515 45.78138204 -43.5625 37.75 C-43.18783202 26.18416239 -37.62803502 17.02135128 -29.43359375 9.13671875 C-25.70758298 6.11055001 -21.62048594 4.10514949 -17.1875 2.3125 C-16.32769531 1.94511719 -15.46789062 1.57773438 -14.58203125 1.19921875 C-9.70923613 -0.07365178 -5.01549678 -0.0162104 0 0 Z " fill="#030302" transform="translate(697.1875,106.6875)"/>
<path d="M0 0 C7.95416745 6.12577661 13.89568599 16.11929338 16.00390625 25.94140625 C16.16439453 27.35292969 16.16439453 27.35292969 16.328125 28.79296875 C16.41835938 29.55738281 16.50859375 30.32179688 16.6015625 31.109375 C17.02054238 40.37527628 13.84946942 49.24458108 7.890625 56.35546875 C2.38855716 62.01269251 -2.22339456 64.37330078 -9.984375 65.10546875 C-15.84649975 64.60867852 -20.52525832 62.31065346 -24.671875 58.10546875 C-27.25766511 53.82275388 -27.86182351 50.67091369 -26.671875 45.79296875 C-25.10297838 42.86935935 -23.34997019 40.75731192 -20.671875 38.79296875 C-16.79140434 37.92184268 -15.32639914 38.40620448 -11.921875 40.41796875 C-9.37704155 43.10418183 -8.56147314 45.23457617 -7.671875 48.79296875 C-2.36544459 49.29834307 0.19492812 48.09952626 4.328125 44.79296875 C8.67663757 39.99461005 8.85830558 34.50016024 8.796875 28.2265625 C7.59411669 19.41635785 2.62843004 10.60628424 -4.4375 5.18359375 C-18.12617683 -3.33593239 -33.02362122 -5.3995142 -48.796875 -2.01953125 C-59.78229308 1.08504343 -68.83923662 5.47526988 -77.671875 12.79296875 C-78.52394531 13.45941406 -79.37601562 14.12585938 -80.25390625 14.8125 C-97.18335059 28.82935176 -106.44040648 52.37319543 -108.671875 73.79296875 C-111.06743134 104.68388162 -103.79201389 134.86553039 -88.671875 161.79296875 C-88.31480469 162.43169922 -87.95773438 163.07042969 -87.58984375 163.72851562 C-82.58016591 172.58838756 -76.98335385 180.79470528 -70.671875 188.79296875 C-70.05699219 189.6128125 -69.44210938 190.43265625 -68.80859375 191.27734375 C-58.00661406 205.21817525 -44.7332699 218.16403641 -30.671875 228.79296875 C-29.36707032 229.82372677 -28.06381726 230.85645054 -26.76171875 231.890625 C-17.7836543 238.96642679 -8.66710293 245.2529685 1.328125 250.79296875 C2.00439941 251.17485352 2.68067383 251.55673828 3.37744141 251.95019531 C40.73544449 272.93243998 86.72846706 291.15653225 130.2734375 290.890625 C131.61727005 290.88850258 131.61727005 290.88850258 132.98825073 290.88633728 C135.80991153 290.88080316 138.63148876 290.86826364 141.453125 290.85546875 C143.38281134 290.85044521 145.31249895 290.84588381 147.2421875 290.84179688 C151.9375315 290.83085544 156.63281415 290.81363753 161.328125 290.79296875 C160.1534668 290.72565552 160.1534668 290.72565552 158.95507812 290.65698242 C128.75528038 288.88739416 98.65923051 286.42724756 69.96484375 276.06640625 C66.71849851 274.92966237 63.46908067 273.94057503 60.171875 272.96484375 C53.61558674 270.95996267 47.39634745 268.46177688 41.140625 265.66796875 C39.51942749 264.94673828 39.51942749 264.94673828 37.86547852 264.2109375 C15.21929502 253.98265458 -4.96872763 240.70683335 -23.3125 223.9296875 C-25.35355462 222.08124896 -27.43561782 220.3096199 -29.546875 218.54296875 C-40.77696381 208.68569641 -49.92147937 196.8315124 -58.671875 184.79296875 C-59.11772949 184.18259766 -59.56358398 183.57222656 -60.02294922 182.94335938 C-72.3606966 165.84791856 -81.53200182 146.57385705 -88.671875 126.79296875 C-88.93637451 126.07262451 -89.20087402 125.35228027 -89.47338867 124.61010742 C-98.13140036 100.04051562 -100.10613291 68.89572922 -89.171875 44.79296875 C-87.27713816 41.00349507 -87.27713816 41.00349507 -84.515625 40.04296875 C-83.9071875 39.96046875 -83.29875 39.87796875 -82.671875 39.79296875 C-83.9936864 45.89363673 -85.44420827 51.9478079 -86.98828125 57.99609375 C-95.80777363 94.08041686 -81.52375663 134.7020869 -63.10058594 165.48095703 C-52.47162703 182.6812716 -40.16850041 198.65875898 -25.671875 212.79296875 C-24.70701172 213.79070312 -24.70701172 213.79070312 -23.72265625 214.80859375 C-18.37147165 220.29986171 -12.79262347 225.17859968 -6.671875 229.79296875 C-5.66769531 230.55222656 -4.66351563 231.31148437 -3.62890625 232.09375 C17.05506428 247.43482608 39.96651122 259.47130295 64.328125 267.79296875 C65.52566406 268.20933594 66.72320312 268.62570312 67.95703125 269.0546875 C97.74339614 278.90064962 129.28654787 283.8265211 160.6171875 284.03125 C161.84053802 284.03932175 163.06388855 284.04739349 164.3243103 284.05570984 C166.90076327 284.06943975 169.47723357 284.08021063 172.05371094 284.08813477 C174.62831145 284.09957958 177.20288967 284.11990998 179.77734375 284.1496582 C198.40150555 284.36379778 215.98575093 282.97458486 234.328125 279.79296875 C233.57688858 279.76916138 232.82565216 279.745354 232.051651 279.7208252 C211.09432912 279.05013396 190.32103688 278.05223478 169.67382812 274.22265625 C167.13974396 273.75846098 164.60182494 273.32129503 162.0625 272.88671875 C132.81484593 267.82397604 102.11612173 261.11627115 76.328125 245.79296875 C76.328125 244.47296875 76.328125 243.15296875 76.328125 241.79296875 C80.28825255 242.28798469 83.31321079 243.77023786 86.8359375 245.5703125 C100.33792616 252.19432888 114.73730679 255.9919628 129.19580078 259.93701172 C131.6804857 260.61599109 134.15934585 261.31071158 136.63671875 262.015625 C179.99728473 273.74624909 241.34069847 282.04220568 284.8203125 266.65917969 C287.77486254 265.63866338 290.75169947 264.70464501 293.734375 263.76953125 C314.38326306 257.21106851 334.35927586 249.17035603 354.328125 240.79296875 C355.0309259 240.49849854 355.73372681 240.20402832 356.45782471 239.90063477 C360.98282201 238.00306811 365.50138954 236.09100266 370.015625 234.16796875 C371.12437988 233.69568848 372.23313477 233.2234082 373.37548828 232.73681641 C382.52593139 228.79454185 391.16354064 224.78229077 399.25 218.93359375 C403.25639406 216.14742123 407.37951659 213.56870085 411.515625 210.98046875 C417.27801888 207.36904802 423.0020593 203.71997305 428.640625 199.91796875 C444.49174749 189.26653593 460.62211596 179.05383518 477.328125 169.79296875 C478.16698242 169.32761719 479.00583984 168.86226562 479.87011719 168.3828125 C512.47769162 150.4480357 550.25914679 136.86389231 587.56835938 147.42724609 C598.9488419 151.07861344 609.96518387 156.30261585 619.328125 163.79296875 C619.328125 164.45296875 619.328125 165.11296875 619.328125 165.79296875 C619.91722656 166.03917969 620.50632812 166.28539062 621.11328125 166.5390625 C627.78683777 170.31721354 632.07110076 179.07676015 635.328125 185.79296875 C635.72257813 186.54320312 636.11703125 187.2934375 636.5234375 188.06640625 C641.81910373 199.80575027 641.05309335 216.0326085 636.6484375 227.9375 C631.05584487 240.03272252 623.46003056 248.71129385 611.00390625 253.828125 C599.8870235 257.8366944 588.69262608 257.92972042 577.328125 254.79296875 C577.73804688 255.86933594 578.14796875 256.94570313 578.5703125 258.0546875 C586.39765489 279.07102929 588.19740075 300.20665482 578.78125 321.109375 C576.44345629 325.42675209 573.52860572 329.09071774 570.328125 332.79296875 C569.55082031 333.77523438 568.77351562 334.7575 567.97265625 335.76953125 C559.43624552 345.98428714 544.41766247 353.00278201 531.328125 354.79296875 C513.02961762 355.9647738 498.2941613 353.57978994 483.578125 341.98046875 C475.20553685 334.37800074 471.42817863 325.05011813 470.87426758 313.89257812 C470.70798553 306.32630513 471.46180035 299.86471327 476.328125 293.79296875 C482.84669489 287.67899975 487.28816273 285.38392451 496.203125 285.4375 C500.76112212 285.95597217 503.95954449 287.72669674 507.328125 290.79296875 C510.15909196 295.03941919 509.86090403 298.80711131 509.328125 303.79296875 C507.30180921 308.30612664 507.30180921 308.30612664 504.328125 309.79296875 C497.12184904 310.38364711 497.12184904 310.38364711 493.640625 307.79296875 C492.8775 307.13296875 492.114375 306.47296875 491.328125 305.79296875 C488.78444832 305.04275631 488.78444832 305.04275631 486.328125 305.79296875 C483.60973259 308.50634568 482.42950089 310.21407744 481.76171875 314.02734375 C481.772083 323.35516711 482.99134715 329.01295309 489.27734375 335.94140625 C499.53975657 345.85375472 510.80623566 348.29817424 524.58203125 348.06640625 C537.8493981 347.52965317 552.0355417 341.6224155 561.78125 332.50390625 C574.70551396 318.20888702 578.16404328 302.44562949 577.76171875 283.73828125 C576.81518545 265.36786858 567.17192425 249.58140696 554.0703125 237.1875 C534.57011324 220.15954823 508.35379945 211.61597042 482.640625 211.66796875 C481.37863281 211.66539062 480.11664062 211.6628125 478.81640625 211.66015625 C468.11419316 211.88924038 457.90088541 213.23013327 447.453125 215.54296875 C446.22078125 215.81246338 444.9884375 216.08195801 443.71875 216.35961914 C434.9982235 218.31332589 426.7131409 220.69316462 418.328125 223.79296875 C416.8543812 224.29096923 415.37900337 224.78415063 413.90234375 225.2734375 C396.57054271 231.06775007 379.9234061 238.47766866 363.18334961 245.77197266 C359.39942887 247.42029425 355.61340938 249.06375428 351.82666016 250.70556641 C350.28792287 251.37524941 348.75077102 252.04860641 347.21630859 252.72802734 C331.70277545 259.59211139 315.44039087 264.54575556 299.328125 269.79296875 C312.51155329 266.95689736 325.25520545 263.13238812 338.078125 258.98046875 C339.94252526 258.38289206 341.80710822 257.78588509 343.671875 257.18945312 C352.96485076 254.20984088 362.23480744 251.16643116 371.48828125 248.06640625 C378.63208982 245.67516709 385.77935769 243.3297593 393.015625 241.23046875 C393.99055908 240.94727783 394.96549316 240.66408691 395.9699707 240.37231445 C403.60328047 238.19855037 411.28611244 236.28017115 419.015625 234.48046875 C420.05356201 234.23804443 421.09149902 233.99562012 422.16088867 233.74584961 C458.52241317 225.51661659 500.49824584 224.71361527 533.328125 244.79296875 C544.35144039 251.91055804 554.57769273 260.77097128 560.328125 272.79296875 C560.515625 275.625 560.515625 275.625 560.328125 277.79296875 C557.30675106 277.47707468 555.7773847 277.30735455 553.73828125 274.97265625 C553.29355469 274.21210937 552.84882812 273.4515625 552.390625 272.66796875 C539.48892122 252.06424029 517.90921435 243.86132077 495.20605469 238.50512695 C488.55969411 236.98437913 482.15906207 235.92796751 475.328125 235.79296875 C474.13316406 235.74269531 472.93820312 235.69242188 471.70703125 235.640625 C442.54131839 234.74724789 413.15738858 241.8612843 385.58837891 250.75097656 C381.82542711 251.95363331 378.05243137 253.1212879 374.27734375 254.28515625 C372.14193502 254.94522897 370.0066666 255.60575335 367.87145996 256.26647949 C366.49554427 256.69215117 365.11949207 257.1173819 363.74328613 257.54211426 C355.55797279 260.07307603 347.46875818 262.78509139 339.41235352 265.69921875 C335.66816272 267.02700904 331.91188042 268.193876 328.078125 269.23046875 C327.344729 269.43091797 326.61133301 269.63136719 325.85571289 269.83789062 C314.75835413 272.81204189 303.54767954 275.3283944 292.328125 277.79296875 C291.32426758 278.01484863 290.32041016 278.23672852 289.28613281 278.46533203 C274.35273076 281.72537131 259.34671978 284.06400349 244.20532227 286.09399414 C243.4777774 286.19283905 242.75023254 286.29168396 242.00064087 286.39352417 C240.01847152 286.66185202 238.03550552 286.92427632 236.05249023 287.1862793 C232.7825467 287.71894463 229.64846866 288.46480092 226.4450531 289.29743958 C222.53871122 290.21183358 218.57109711 290.69984696 214.59765625 291.23046875 C213.22923836 291.41887329 213.22923836 291.41887329 211.83317566 291.61108398 C208.93620719 292.00918345 206.03847393 292.40133487 203.140625 292.79296875 C200.26080071 293.18577126 197.38115551 293.57984723 194.50163269 293.97485352 C192.71856819 294.21906628 190.93530941 294.4618671 189.15180969 294.70288086 C188.31772079 294.81639893 187.4836319 294.92991699 186.62426758 295.046875 C185.77518829 295.16215042 184.92610901 295.27742584 184.05130005 295.39619446 C182.11894033 295.67774472 180.19061659 295.98764712 178.26583862 296.31706238 C170.36834976 297.65117562 162.73733737 298.09995114 154.734375 298.09375 C153.46758911 298.09803513 152.20080322 298.10232025 150.89562988 298.10673523 C148.22308276 298.11244571 145.55092561 298.113957 142.87841797 298.10864258 C138.89402098 298.10181362 134.91010411 298.12885452 130.92578125 298.15429688 C114.18890787 298.19445952 97.93802319 297.13866189 81.331604 295.13952637 C77.7708117 294.72866293 74.20740566 294.40023322 70.63563538 294.10194397 C36.34068152 291.12581624 4.61764447 278.3315245 -26.6862793 264.89257812 C-33.34165206 262.03672377 -40.00728219 259.21232833 -46.72265625 256.5 C-47.88450439 256.03053955 -49.04635254 255.5610791 -50.2434082 255.07739258 C-54.91683354 253.32656365 -59.64299295 251.96869692 -64.4609375 250.6640625 C-67.28693318 249.89739944 -70.06879258 249.05268021 -72.859375 248.16796875 C-82.81726066 245.20789528 -92.43202705 244.43340541 -102.796875 244.48046875 C-104.07788086 244.4853833 -105.35888672 244.49029785 -106.67871094 244.49536133 C-120.41552115 244.66476925 -132.79233011 246.92648926 -145.87988281 251.07885742 C-150.16977858 252.43486501 -154.2228377 253.2729514 -158.671875 253.79296875 C-156.0788898 247.37946812 -149.48649657 245.05660574 -143.49609375 242.3671875 C-104.35802875 227.06406866 -61.83687195 243.05231618 -25.671875 258.79296875 C-22.26645692 260.31397056 -18.87437367 261.86296126 -15.484375 263.41796875 C7.80262234 274.07295815 37.22227078 286.79296875 63.328125 286.79296875 C62.54501953 286.54764404 61.76191406 286.30231934 60.95507812 286.04956055 C30.85613835 276.53711833 3.38516503 263.50742046 -23.921875 247.60546875 C-47.25833816 234.20913922 -71.87602902 222.98531139 -98.68334961 219.08813477 C-100.32990372 218.84372913 -101.96763907 218.54072668 -103.6015625 218.22265625 C-117.78317186 216.23795265 -132.08672439 217.3927152 -145.671875 221.79296875 C-146.64761475 222.10645264 -146.64761475 222.10645264 -147.64306641 222.42626953 C-167.02047744 228.88863369 -182.21992113 241.60775797 -191.671875 259.79296875 C-197.60917635 271.78497571 -197.52606905 287.11227569 -193.671875 299.79296875 C-187.82946257 314.26334009 -179.21880083 322.193289 -165.3359375 328.92578125 C-160.89951269 330.73191467 -156.42134177 331.49503172 -151.671875 331.79296875 C-150.91132813 331.85742188 -150.15078125 331.921875 -149.3671875 331.98828125 C-139.55878071 332.45833269 -130.01075485 329.3511167 -122.671875 322.79296875 C-119.64162381 318.24759197 -119.13085841 314.11717627 -118.671875 308.79296875 C-119.34734375 308.82777344 -120.0228125 308.86257813 -120.71875 308.8984375 C-121.61078125 308.92550781 -122.5028125 308.95257812 -123.421875 308.98046875 C-124.30359375 309.01527344 -125.1853125 309.05007813 -126.09375 309.0859375 C-129.17680603 308.73559022 -130.45703464 307.93298342 -132.671875 305.79296875 C-133.91150988 302.07406412 -134.35000233 298.65075979 -133.671875 294.79296875 C-131.16502424 291.58977056 -128.57963242 289.05724321 -124.671875 287.79296875 C-119.4153937 287.30625752 -116.08919734 287.87941572 -111.671875 290.79296875 C-106.73778658 295.66941595 -104.53441249 299.2894817 -104.359375 306.35546875 C-104.46863702 315.41329035 -107.38475905 322.41585562 -113.640625 328.9765625 C-123.63014117 337.90949523 -135.83724337 340.47755564 -148.9921875 340.140625 C-166.31737385 338.50374434 -179.80102266 331.42803906 -191.671875 318.79296875 C-202.34075952 305.8420742 -205.19112616 290.0893113 -203.671875 273.79296875 C-201.53823849 256.5802665 -190.12491902 240.64482717 -177.16015625 229.6953125 C-153.97790716 211.97199177 -126.41984927 208.10407551 -97.95410156 211.56665039 C-79.90953131 214.13348872 -63.23153869 220.39639242 -46.671875 227.79296875 C-44.98831085 228.54043125 -43.30471766 229.28782836 -41.62109375 230.03515625 C-40.3046083 230.62091579 -38.98817189 231.20678562 -37.671875 231.79296875 C-38.909375 230.77203125 -38.909375 230.77203125 -40.171875 229.73046875 C-53.50377262 218.59547084 -66.11151643 206.62642091 -76.671875 192.79296875 C-77.40535156 191.86484375 -78.13882813 190.93671875 -78.89453125 189.98046875 C-84.85346758 182.29415636 -89.87492678 174.23164669 -94.671875 165.79296875 C-95.02668945 165.17518555 -95.38150391 164.55740234 -95.74707031 163.92089844 C-104.41301604 148.72548667 -109.8098597 132.82909907 -113.671875 115.79296875 C-113.86168945 114.9925415 -114.05150391 114.19211426 -114.24707031 113.36743164 C-115.88895456 105.63264035 -115.97740457 97.9638841 -115.93261719 90.09594727 C-115.92190879 87.86251581 -115.93256278 85.62989135 -115.9453125 83.39648438 C-115.97596554 55.90737547 -106.63839901 31.18578733 -87.33984375 11.40234375 C-63.65287165 -11.09836642 -28.02117824 -19.21335175 0 0 Z " fill="#0D0D0D" transform="translate(295.671875,495.20703125)"/>
<path d="M0 0 C1.14774902 -0.00612305 2.29549805 -0.01224609 3.47802734 -0.01855469 C22.93782395 0.26708343 44.355237 6.90380569 58.76171875 20.5390625 C69.62146614 32.36464425 75.25970429 45.30729761 74.90234375 61.375 C74.23768714 73.02441709 69.20390659 83.24672757 60.7578125 91.19921875 C50.52360513 99.62863851 39.54105657 101.7337562 26.66015625 100.71728516 C17.98664479 99.81884181 13.05240309 97.63352727 7.5 90.8125 C6.68135493 89.74160086 5.863647 88.66998467 5.046875 87.59765625 C-9.44811668 69.52449838 -35.58849015 58.995468 -58.140625 56.16015625 C-88.25581061 53.34168375 -115.737678 58.76459816 -144.4375 67.5 C-141.08955851 63.78759905 -137.36068098 61.42758185 -133.125 58.875 C-127.72987666 55.56953711 -122.42003349 52.18183433 -117.1875 48.625 C-103.70896776 39.52924618 -89.57815404 31.37925584 -75.33447266 23.546875 C-73.41876272 22.48965953 -71.51225645 21.41695603 -69.60546875 20.34375 C-62.45400438 16.36826929 -55.4042478 13.1780026 -47.61328125 10.578125 C-44.93145315 9.66768889 -42.39979886 8.64185519 -39.8125 7.5 C-26.71885306 2.34701637 -14.08438442 0.04118788 0 0 Z " fill="#FBFBFB" transform="translate(854.4375,645.5)"/>
<path d="M0 0 C0 0.66 0 1.32 0 2 C-0.81452637 2.21765015 -0.81452637 2.21765015 -1.64550781 2.43969727 C-14.87990338 6.03393059 -25.52163285 10.3501033 -36.73950195 18.39501953 C-49.39444158 27.42859489 -62.34629372 32.41983954 -77.9375 32.1875 C-79.21077148 32.1865332 -79.21077148 32.1865332 -80.50976562 32.18554688 C-86.71780418 32.14109791 -86.71780418 32.14109791 -89 31 C-88.61791518 25.6428524 -86.63487875 22.79468185 -83 19.0625 C-82.50234131 18.54034912 -82.00468262 18.01819824 -81.49194336 17.48022461 C-73.84484178 9.59839185 -66.38189386 4.74084435 -56 1 C-54.51693359 0.45666016 -54.51693359 0.45666016 -53.00390625 -0.09765625 C-36.58498728 -5.02973724 -16.7533529 -1.83759063 0 0 Z " fill="#101010" transform="translate(389,796)"/>
<path d="M0 0 C-0.91764894 8.67942956 -6.65922159 15.36035446 -13.1875 20.875 C-23.35954912 28.22147992 -34.66098236 30.17944584 -46.875 30.125 C-47.73480469 30.12886719 -48.59460938 30.13273437 -49.48046875 30.13671875 C-57.94388874 30.12387593 -65.12891274 29.23276798 -73 26 C-69.90688284 23.93792189 -68.6318175 23.69026824 -65.0625 23.25 C-54.98173002 21.49510156 -47.09008061 16.17212936 -38.875 10.375 C-26.04481498 1.32186204 -15.52282214 -0.21296555 0 0 Z " fill="#111111" transform="translate(804,199)"/>
<path d="M0 0 C14.67740846 0.69070157 29.06392741 4.56837508 39.9453125 14.734375 C44.76850358 20.05272258 47.27176615 25.41510782 47.3125 32.625 C47.23388817 34.0849339 47.13934616 35.54460677 47 37 C39.4318209 36.67794983 34.29623621 33.2029465 28.9296875 27.98828125 C25.26836353 23.98954115 22.164999 19.79634621 19.125 15.3125 C14.1440508 8.29790882 7.88087804 5.03756756 0 2 C0 1.34 0 0.68 0 0 Z " fill="#0D0D0D" transform="translate(722,231)"/>
<path d="M0 0 C0 0.66 0 1.32 0 2 C-1.97300837 3.44967993 -3.94947228 4.79379819 -6 6.125 C-16.78292057 13.45761872 -22.42111333 21.034853 -28.5234375 32.4765625 C-31.62767238 38.25409143 -35.23226126 43.63255095 -39 49 C-40.9375 48.1875 -40.9375 48.1875 -43 47 C-45.28917966 40.13246102 -45.0446773 32.26727242 -42 25.6875 C-34.17692279 12.32577033 -19.74890805 5.02552319 -5.35546875 0.55859375 C-3 0 -3 0 0 0 Z " fill="#111111" transform="translate(406,798)"/>
<path d="M0 0 C2.9375 2.4375 2.9375 2.4375 4.9375 5.4375 C4.5625 7.625 4.5625 7.625 3.9375 9.4375 C-5.87506234 9.19990769 -14.62827142 8.43164392 -24.01171875 5.375 C-34.19658527 2.24520747 -44.63732625 2.50541349 -54.72265625 5.78125 C-57.0625 6.4375 -57.0625 6.4375 -61.0625 6.4375 C-61.0625 5.7775 -61.0625 5.1175 -61.0625 4.4375 C-42.26255929 -5.56246846 -19.28555871 -13.06824307 0 0 Z " fill="#0A0A09" transform="translate(848.0625,681.5625)"/>
<path d="M0 0 C0.77730469 -0.01224609 1.55460937 -0.02449219 2.35546875 -0.03710938 C7.33200237 -0.04965526 11.406485 0.59578761 16.125 2.1875 C16.125 3.1775 16.125 4.1675 16.125 5.1875 C15.32578125 5.27386719 14.5265625 5.36023438 13.703125 5.44921875 C5.455664 6.50435167 -1.36819285 8.67495655 -8.875 12.1875 C-25.45309621 19.78217758 -25.45309621 19.78217758 -30.875 18.1875 C-29.60805895 11.85279475 -25.71408744 8.14994117 -20.875 4.1875 C-14.33618847 0.27493244 -7.40064839 0.00607607 0 0 Z " fill="#090909" transform="translate(260.875,767.8125)"/>
<path d="M0 0 C1.89698812 0.95694766 3.73855239 2.02229609 5.56640625 3.10546875 C5.35546875 4.9375 5.35546875 4.9375 4.56640625 7.10546875 C-2.18930632 12.05876789 -9.66632216 12.57837659 -17.76953125 12.8671875 C-24.7249146 13.31950987 -31.02760482 15.47240213 -37.43359375 18.10546875 C-37.76359375 17.11546875 -38.09359375 16.12546875 -38.43359375 15.10546875 C-37.77359375 15.10546875 -37.11359375 15.10546875 -36.43359375 15.10546875 C-36.10359375 14.11546875 -35.77359375 13.12546875 -35.43359375 12.10546875 C-29.54729419 6.3143013 -23.23966976 2.64065307 -15.43359375 0.10546875 C-10.40272534 -1.57148739 -5.0284951 -1.84835534 0 0 Z " fill="#0C0C0C" transform="translate(634.43359375,176.89453125)"/>
<path d="M0 0 C3.96012755 0.49501594 6.98508579 1.97726911 10.5078125 3.77734375 C24.96062228 10.8678288 40.54001284 14.76318995 56 19 C55.505 21.475 55.505 21.475 55 24 C37.15591819 20.72954128 14.68699451 15.16673257 0 4 C0 2.68 0 1.36 0 0 Z " fill="#141414" transform="translate(372,737)"/>
<path d="M0 0 C0 0.66 0 1.32 0 2 C-1.09699219 1.98839844 -2.19398438 1.97679687 -3.32421875 1.96484375 C-4.77864412 1.95546036 -6.23307135 1.94636075 -7.6875 1.9375 C-8.40873047 1.92912109 -9.12996094 1.92074219 -9.87304688 1.91210938 C-12.96623296 1.89798524 -15.83941729 1.96683618 -18.875 2.59375 C-21 3 -21 3 -23.3125 1.5625 C-23.869375 1.046875 -24.42625 0.53125 -25 0 C-16.33841565 -4.51908749 -8.79780524 -3.91013566 0 0 Z " fill="#0C0C0C" transform="translate(248,758)"/>
<path d="M0 0 C0.66 0.33 1.32 0.66 2 1 C1.67 1.99 1.34 2.98 1 4 C-1.20556641 4.96728516 -1.20556641 4.96728516 -4.1015625 5.7890625 C-5.67357422 6.24152344 -5.67357422 6.24152344 -7.27734375 6.703125 C-8.93443359 7.15945313 -8.93443359 7.15945313 -10.625 7.625 C-12.24728516 8.09292969 -12.24728516 8.09292969 -13.90234375 8.5703125 C-19.25735533 10.08723886 -24.4618639 11.41286236 -30 12 C-29 10 -29 10 -26.43969727 8.96264648 C-25.32651123 8.60243408 -24.2133252 8.24222168 -23.06640625 7.87109375 C-21.2575293 7.27844727 -21.2575293 7.27844727 -19.41210938 6.67382812 C-18.12900612 6.26140792 -16.84580175 5.84930216 -15.5625 5.4375 C-13.06296893 4.62623483 -10.56472794 3.81108283 -8.06640625 2.99609375 C-6.95209229 2.63700928 -5.83777832 2.2779248 -4.68969727 1.90795898 C-2.07008318 1.09239625 -2.07008318 1.09239625 0 0 Z " fill="#CBCBCC" transform="translate(624,754)"/>
<path d="M0 0 C0 0.33 0 0.66 0 1 C-2.64 1 -5.28 1 -8 1 C-7.67 1.99 -7.34 2.98 -7 4 C-7.66 4.66 -8.32 5.32 -9 6 C-12.44165321 5.64700993 -14.06872538 4.95418308 -17 3 C-11.17521449 -0.03901852 -6.51791392 -0.3540919 0 0 Z " fill="#323233" transform="translate(240,755)"/>
<path d="M0 0 C0.66 0.33 1.32 0.66 2 1 C1.67 1.99 1.34 2.98 1 4 C-1.28515625 4.94921875 -1.28515625 4.94921875 -4.0625 5.6875 C-5.44115234 6.06455078 -5.44115234 6.06455078 -6.84765625 6.44921875 C-7.55792969 6.63097656 -8.26820313 6.81273437 -9 7 C-6.25604436 4.05278838 -3.61662784 1.80831392 0 0 Z " fill="#D4D3D5" transform="translate(719,706)"/>
<path d="M0 0 C2 1 2 1 4 4 C3.67 4.66 3.34 5.32 3 6 C0.69 5.34 -1.62 4.68 -4 4 C-3.01 3.67 -2.02 3.34 -1 3 C-0.67 2.01 -0.34 1.02 0 0 Z " fill="#232323" transform="translate(246,745)"/>
<path d="M0 0 C3.3 0.33 6.6 0.66 10 1 C9.01 1.33 8.02 1.66 7 2 C7 2.66 7 3.32 7 4 C4.69 3.34 2.38 2.68 0 2 C0 1.34 0 0.68 0 0 Z " fill="#343434" transform="translate(722,231)"/>
<path d="M0 0 C3.96 0 7.92 0 12 0 C11.67 0.99 11.34 1.98 11 3 C7.37 2.34 3.74 1.68 0 1 C0 0.67 0 0.34 0 0 Z " fill="#DBDBDA" transform="translate(575,207)"/>
</svg>
